<svg xmlns="http://www.w3.org/2000/svg" viewBox="0 0 273.81 207.32"><defs><style>.cls-1{fill:#db0000;}</style></defs><title>it</title><g id="Layer_2" data-name="Layer 2"><g id="Layer_1-2" data-name="Layer 1"><path id="Path_2744" data-name="Path 2744" class="cls-1" d="M144.11,144.09c.06-3.69.26-7.39.14-11.07a37.71,37.71,0,0,0-1-6.68,48.94,48.94,0,0,0-1.65-5.58,23.23,23.23,0,0,0-1.73-4,13.14,13.14,0,0,1-1.52-7.3c.14-3.82.26-7.64.29-11.45a6,6,0,0,0-.7-2.27,7.09,7.09,0,0,1-.55-4.16c.15-.8.29-1.59.39-2.39.4-3.54.8-7.07,1.18-10.6a11.37,11.37,0,0,0,0-1.75c0-1.28-.06-2.58-.19-3.85a5.82,5.82,0,0,0-.6-2.39,6.06,6.06,0,0,1-.9-3.89,41.64,41.64,0,0,0-.68-9.65c-.41-2.91-1.21-5.81-.67-8.77.33-1.81,1-3.56,1.4-5.34a19.69,19.69,0,0,0,.74-3.79,43.08,43.08,0,0,0-.75-10.63,32.67,32.67,0,0,1-.39-5.41,3,3,0,0,1,.28-1.21c.46-1.16.1-1.9-1.15-1.86a12.87,12.87,0,0,0-3.89.67,9.19,9.19,0,0,1-4.08.67c-4.33-.44-8.39.9-12.5,1.92a5.78,5.78,0,0,0-1.5.67,13.36,13.36,0,0,1-6.72,1.65c-3.3.06-6.67.42-9.85-.6a14.16,14.16,0,0,0-6.41-1,.31.31,0,0,1-.19,0c-3.32-1.46-7-.75-10.39-1.59s-6.9-1.74-10.4-2.42a39.76,39.76,0,0,0-6.54-.7c-2.32-.07-4.66.1-7,.25A29.1,29.1,0,0,1,42.3,16.72a17.14,17.14,0,0,1-7.06-5.11,9.07,9.07,0,0,1-1-1.56c-.68-1.36,0-2.46,1.48-2.43,1.78,0,3.56.15,5.33.28a28,28,0,0,0,9.59-1.11,22.17,22.17,0,0,1,9.72-.45c4,.7,8,.92,11.87-.65A31.58,31.58,0,0,1,82.81,3.53c3.55-.16,7-1.26,10.57-2A64.64,64.64,0,0,1,114.64.39c9,1.2,18,2.83,27,4.2,6.5,1,13,2.09,19.52,2.77,7.37.76,14.79,1.11,22.19,1.63,3.49.25,7,.56,10.47.67,2.72.09,5.44-.1,8.16-.17,6.51-.17,13-.55,19.52-.46,8.23.11,16.45.58,24.67,1,1.37.07,2.73.5,4.1.69,1.19.17,2.38.26,3.57.35a4.75,4.75,0,0,1,3.22,1,3.78,3.78,0,0,0,2.31.44c1.74,0,3.5-.07,5.24-.1a7.65,7.65,0,0,1,4.4.92,3.11,3.11,0,0,0,1.2.33c.67.1,1.36.1,2,.2s1.5.36,1.61,1.28-.58,1.3-1.28,1.46c-3,.72-5.8,2.55-9.1,2-1.71-.3-3.41-.77-5.13-.94a71.29,71.29,0,0,0-13.78-.34,22.23,22.23,0,0,0-3.23.64,4.88,4.88,0,0,1-3.5-.32,2.85,2.85,0,0,0-2.39,0c-2.28.77-4.6,1.35-6.94,0a2.21,2.21,0,0,0-1.8-.05,7.78,7.78,0,0,1-3.86.74,12.62,12.62,0,0,0-5.24.67,9.69,9.69,0,0,1-3.08.25,4,4,0,0,0-2.62.81,3.08,3.08,0,0,1-1.34.5,36.74,36.74,0,0,1-4.16.79,47.38,47.38,0,0,1-5.33.15,19.93,19.93,0,0,0-9.87,2,8.26,8.26,0,0,1-3.28.74c-3.38.21-6.78.3-10.17.43-.65,0-1.3,0-1.94,0-2.54.1-3.7,1.6-3,4.09.4,1.52,1,3,1.5,4.5a2.25,2.25,0,0,1-.53,2.8c-.9.8-.76,2.54.22,3.73A13.31,13.31,0,0,0,176,41.87a4,4,0,0,1,1.7,4,3.75,3.75,0,0,1-.77,1.82c-1.41,1.77-2.92,3.47-4.4,5.19a5,5,0,0,0-1.35,3.24c0,1.75-.14,3.5,0,5.24a7.38,7.38,0,0,0,.77,2.56c.41.95.37,1.25-.5,1.84A8.83,8.83,0,0,0,170,66.92c-1.33,1.45-2.7,2.89-3.91,4.44a29.47,29.47,0,0,0-1.65,3c-.37.6-.81,1.4-1.39,1.59-2.47.81-3.1,2.85-3.62,5-.15.63,0,1.32-.25,1.92a12.79,12.79,0,0,1-1.22,2.56c-.65,1.07-1.53,2-2.09,3.1a30.51,30.51,0,0,0-2,4.85,15.15,15.15,0,0,0-.61,4.18,16.64,16.64,0,0,1-.67,5.16,40.36,40.36,0,0,0-.95,3.94,1.74,1.74,0,0,0,.13.64,17.16,17.16,0,0,1,.61,3,3.82,3.82,0,0,1-.7,1.9c-.29.5-.6.8.15,1.2s.78,1.88.17,2.77a8.32,8.32,0,0,0-1.13,6,3.5,3.5,0,0,0,.48,1.46,11.39,11.39,0,0,1,1.78,6.27c0,5.24-.17,10.48-.34,15.72,0,1.52-.41,3-.48,4.54-.22,4.46.08,8.86,2.06,13,.56,1.16,1,2.4,1.46,3.6a9.65,9.65,0,0,1,.4,4.88,8.4,8.4,0,0,0,1,5.33,9.73,9.73,0,0,1,1,3.42,22.83,22.83,0,0,1,.23,4.45c-.24,4.37.55,8.65,1,12.95.21,2,1,3.88.24,5.94-.27.7,0,1.61-.05,2.4-.06.45-.36,1.13-.7,1.23a1.68,1.68,0,0,1-1.29-.6,9.61,9.61,0,0,1-.83-1.59,5.54,5.54,0,0,0-1-1.53,2.81,2.81,0,0,1-1.24-2.48,3.64,3.64,0,0,0-1-2.74,35,35,0,0,1-2.32-3.22,9.1,9.1,0,0,1-1.07-6.19,1.6,1.6,0,0,1,.31-.9,2.29,2.29,0,0,0,.38-2.53,12.81,12.81,0,0,1-.35-5.37,9.19,9.19,0,0,0-.5-2.48,5.83,5.83,0,0,1-.11-1.77c.15-.95.21-1.68-.84-2.28a2.16,2.16,0,0,1-.56-3,2.07,2.07,0,0,1,.4-.44c.5-.45.6-.66.09-1.2-.7-.76.06-1.38.56-1.76.68-.52,1-1,.74-1.88s-.48-2-1.74-2.35c-.29-.07-.71-.48-.71-.72a6,6,0,0,1,.35-2.33,4.11,4.11,0,0,0,.11-3.38c-.32-.89-.82-1-1.52-.39s-1,.59-1.34-.38a13.18,13.18,0,0,1-.59-2.54c-.3-2.5-.55-5-.8-7.53-.05-.54,0-1.1,0-1.65Z"/><path id="Path_2745" data-name="Path 2745" class="cls-1" d="M17.05,153.75c-.26-4.1-.54-8.2-.78-12.3a9.83,9.83,0,0,1,.11-2.6,2.34,2.34,0,0,0-.52-2.26c-1.52-1.58-2-3.58-2.46-5.61-.68-3.13-1.2-6.3-2-9.39a35.37,35.37,0,0,0-6.19-12.12,10.34,10.34,0,0,1-2.5-5.68A6.22,6.22,0,0,0,2,101.7a20.15,20.15,0,0,1-2-9.12,6.49,6.49,0,0,1,.43-2.27A29.9,29.9,0,0,0,2.3,76.39C2,72.59,1.66,68.78,1.63,65c-.07-7.26-.06-14.52.18-21.77a71.89,71.89,0,0,1,1.36-9.78,13.5,13.5,0,0,1,1.25-2.7,7,7,0,0,0,.78-2.34,28.2,28.2,0,0,1,3-11.28A16,16,0,0,0,9.9,9.82a8.44,8.44,0,0,1,1.6-5.39,14.94,14.94,0,0,0,.91-1.6c.57-1,1.49-1.34,2.39-.56a8.55,8.55,0,0,1,1.89,2.3,14.44,14.44,0,0,0,3.52,4.58A4.84,4.84,0,0,1,22,12.89c.14,2.65.25,5.31.54,7.94a9.25,9.25,0,0,0,2.14,5.23,3.25,3.25,0,0,1,.65,1.18c.55,1.72,1.06,3.45,1.59,5.18s.46,3.12-.91,4.37a1.64,1.64,0,0,0-.3,2.14,5,5,0,0,1,.66,4.17,1.63,1.63,0,0,0,.38,1.23c1.37,1.83,1,3.75.46,5.74-.39,1.59-.7,3.2-.93,4.82a2.57,2.57,0,0,0,.33,1.58c1.18,1.88,1,3.88.74,5.93a21.81,21.81,0,0,0,.42,7.72,3.73,3.73,0,0,0,.55,1.22c1.55,2.34.94,4.62-.29,6.77a6.86,6.86,0,0,0-1,4.73,7.32,7.32,0,0,1-.49,4.08c-.76,2-1.59,3.89-1.46,6.08a3.86,3.86,0,0,1-.46,1.66A8.91,8.91,0,0,0,24,99.5a58.2,58.2,0,0,1,.21,6.19,18.19,18.19,0,0,0,.8,5.53,13.21,13.21,0,0,1,.51,5.45,49.25,49.25,0,0,0,.15,12,32.58,32.58,0,0,1,0,9.66c-.24,1.26,0,2.59-.15,3.87s-.42,2.25-.62,3.39a11.34,11.34,0,0,0-.41,2.9,27.86,27.86,0,0,1-.34,8.4c-.3,1.45-.3,3-.59,4.42a36.45,36.45,0,0,1-4,9.77c-2.51,4.75-5.17,9.42-7.59,14.21-.93,1.83-1.3,3.93-2.09,5.84-1,2.36-2.2,4.61-3.15,7a7.64,7.64,0,0,0-.42,3c0,1.31-.65,2.7-1.69,3a2.53,2.53,0,0,1-2.88-1.77,8.11,8.11,0,0,1-.38-3.69,45.48,45.48,0,0,1,2.05-6.44,5.84,5.84,0,0,0,.44-3.77,3.41,3.41,0,0,1,.57-3c2.2-3.16,4.4-6.32,6.66-9.44a30.23,30.23,0,0,0,5.81-18.38c0-1.3,0-2.59,0-3.89Z"/></g></g></svg>